name rise49.8558peak67.6521fall70.3087.mot
datacolumns 19
datarows 14
range 15.65993800000000 15.68160500000000
endheader
time	ground_force1_vx	ground_force1_vy	ground_force1_vz	ground_force1_px	ground_force1_py	ground_force1_pz	ground_force2_vx	ground_force2_vy	ground_force2_vz	ground_force2_px	ground_force2_py	ground_force2_pz	ground_torque1_x	ground_torque1_y	ground_torque1_z	ground_torque2_x	ground_torque2_y	ground_torque2_z	
15.65993800000000	-47.08114100000000	822.20927700000004	65.50788000000000	0.19908100000000	0.00000000000000	0.12420100000000	-4.07208700000000	32.59399000000000	7.00388200000000	0.36956000000000	0.00000000000000	-0.07311000000000	0.00000000000000	36.82008000000000	0.00000000000000	0.00000000000000	5.42294900000000	0.00000000000000	
15.66162100000000	-47.23788900000000	820.18077400000004	65.47465800000001	0.19836400000000	0.00000000000000	0.12416500000000	-4.63414400000000	38.87400200000000	8.09033800000000	0.37881000000000	0.00000000000000	-0.07350700000000	0.00000000000000	36.68501400000000	0.00000000000000	0.00000000000000	6.34970200000000	0.00000000000000	
15.66327600000000	-47.39259600000000	818.00209099999995	65.41503600000000	0.19765500000000	0.00000000000000	0.12412500000000	-5.13908200000000	45.26476500000000	9.11785100000000	0.38711000000000	0.00000000000000	-0.07388100000000	0.00000000000000	36.54097200000000	0.00000000000000	0.00000000000000	7.24515800000000	0.00000000000000	
15.66494300000000	-47.54596100000000	815.67297199999996	65.32851599999999	0.19695300000000	0.00000000000000	0.12408100000000	-5.56920000000000	51.65907400000000	10.05879200000000	0.39459200000000	0.00000000000000	-0.07423600000000	0.00000000000000	36.38809300000000	0.00000000000000	0.00000000000000	8.08462800000000	0.00000000000000	
15.66661200000000	-47.69867500000000	813.19329200000004	65.21465100000000	0.19625800000000	0.00000000000000	0.12403200000000	-5.91092300000000	57.96900400000000	10.89175600000000	0.40136400000000	0.00000000000000	-0.07457400000000	0.00000000000000	36.22652600000000	0.00000000000000	0.00000000000000	8.84817400000000	0.00000000000000	
15.66827700000000	-47.85141800000000	810.56305099999997	65.07303500000000	0.19557000000000	0.00000000000000	0.12397900000000	-6.15526200000000	64.13026000000001	11.60237600000000	0.40751600000000	0.00000000000000	-0.07489800000000	0.00000000000000	36.05643700000000	0.00000000000000	0.00000000000000	9.52150500000000	0.00000000000000	
15.66993700000000	-48.00485300000000	807.78236600000002	64.90331600000000	0.19488900000000	0.00000000000000	0.12392200000000	-6.29783000000000	70.10389100000000	12.18343800000000	0.41312400000000	0.00000000000000	-0.07521100000000	0.00000000000000	35.87800300000000	0.00000000000000	0.00000000000000	10.09627700000000	0.00000000000000	
15.67161000000000	-48.15962500000000	804.85147199999994	64.70518800000001	0.19421400000000	0.00000000000000	0.12386100000000	-6.33847800000000	75.87564900000000	12.63438700000000	0.41825000000000	0.00000000000000	-0.07551400000000	0.00000000000000	35.69141300000000	0.00000000000000	0.00000000000000	10.56984800000000	0.00000000000000	
15.67327700000000	-48.31635700000000	801.77070900000001	64.47839800000000	0.19354500000000	0.00000000000000	0.12379500000000	-6.28065800000000	81.45341500000001	12.96038200000000	0.42295000000000	0.00000000000000	-0.07580800000000	0.00000000000000	35.49686800000000	0.00000000000000	0.00000000000000	10.94460600000000	0.00000000000000	
15.67494500000000	-48.47564400000000	798.54051900000002	64.22274200000000	0.19288200000000	0.00000000000000	0.12372400000000	-6.13059400000000	86.86324999999999	13.17103000000000	0.42726900000000	0.00000000000000	-0.07609500000000	0.00000000000000	35.29457700000000	0.00000000000000	0.00000000000000	11.22698800000000	0.00000000000000	
15.67661100000000	-48.63805200000000	795.16144099999997	63.93807100000000	0.19222400000000	0.00000000000000	0.12364900000000	-5.89637800000000	92.14463100000000	13.27898800000000	0.43124700000000	0.00000000000000	-0.07637500000000	0.00000000000000	35.08476000000000	0.00000000000000	0.00000000000000	11.42634300000000	0.00000000000000	
15.67828200000000	-48.80411400000000	791.63410699999997	63.62428900000000	0.19157200000000	0.00000000000000	0.12356900000000	-5.58707100000000	97.34541700000000	13.29855400000000	0.43491800000000	0.00000000000000	-0.07665000000000	0.00000000000000	34.86764600000000	0.00000000000000	0.00000000000000	11.55374500000000	0.00000000000000	
15.67993800000000	-48.97432600000000	787.95922900000005	63.28135100000000	0.19092500000000	0.00000000000000	0.12348400000000	-5.21188800000000	102.51699100000000	13.24436200000000	0.43831300000000	0.00000000000000	-0.07692000000000	0.00000000000000	34.64347000000000	0.00000000000000	0.00000000000000	11.62087300000000	0.00000000000000	
15.68160500000000	-49.14914300000000	784.13760300000001	62.90926900000000	0.19028300000000	0.00000000000000	0.12339400000000	-4.77950400000000	107.70994300000000	13.13028400000000	0.44145700000000	0.00000000000000	-0.07718600000000	0.00000000000000	34.41247500000000	0.00000000000000	0.00000000000000	11.63903900000000	0.00000000000000	
